<svg height="512" viewBox="0 0 512 512" width="512" xmlns="http://www.w3.org/2000/svg" xmlns:xlink="http://www.w3.org/1999/xlink"><linearGradient id="a" gradientUnits="userSpaceOnUse" x1="21.246" x2="548.067" y1="540.887" y2="14.066" data-name="New Gradient Swatch 1"><stop offset="0" stop-color="#003f8a"/><stop offset=".518" stop-color="#00d7df"/><stop offset="1" stop-color="#006df0"/></linearGradient><linearGradient id="b" x1="-55.821" x2="471.001" xlink:href="#a" y1="463.82" y2="-63.001"/><linearGradient id="c" x1="-19.99" x2="506.831" xlink:href="#a" y1="499.651" y2="-27.17"/><linearGradient id="d" x1="-12.154" x2="514.667" xlink:href="#a" y1="507.486" y2="-19.335"/><linearGradient id="e" x1="-6.07" x2="520.751" xlink:href="#a" y1="513.57" y2="-13.251"/><linearGradient id="f" x1="-11.82" x2="515.001" xlink:href="#a" y1="507.82" y2="-19.001"/><linearGradient id="g" x1=".18" x2="527.001" xlink:href="#a" y1="519.82" y2="-7.001"/><linearGradient id="h" x1="34.18" x2="561.001" xlink:href="#a" y1="553.82" y2="26.999"/><linearGradient id="i" x1="46.18" x2="573.001" xlink:href="#a" y1="565.82" y2="38.999"/><linearGradient id="j" x1="50.18" x2="577.001" xlink:href="#a" y1="569.82" y2="42.999"/><g><path d="m496 384h-32v-244a28.031 28.031 0 0 0 -28-28h-44v-56a8 8 0 0 0 -8-8h-256a8 8 0 0 0 -8 8v56h-44a28.031 28.031 0 0 0 -28 28v244h-32a8 8 0 0 0 -8 8v44a28.031 28.031 0 0 0 28 28h440a28.031 28.031 0 0 0 28-28v-44a8 8 0 0 0 -8-8zm-104-232h32v208h-32zm-256-88h240v296h-240zm-72 76a12.01 12.01 0 0 1 12-12h44v8h-40a8 8 0 0 0 -8 8v224a8 8 0 0 0 8 8h352a8 8 0 0 0 8-8v-224a8 8 0 0 0 -8-8h-40v-8h44a12.01 12.01 0 0 1 12 12v244h-384zm56 12v208h-32v-208zm180.9 248-2.67 8h-84.46l-2.67-8zm187.1 36a12.01 12.01 0 0 1 -12 12h-440a12.01 12.01 0 0 1 -12-12v-36h170.23l6.18 18.53a8 8 0 0 0 7.59 5.47h96a8 8 0 0 0 7.59-5.47l6.18-18.53h170.23z" fill="url(#a)"/><path d="m284.36 89.29a8.016 8.016 0 0 0 -7.61-.6l-70.45 31.31h-38.3a8 8 0 0 0 -8 8v80a8 8 0 0 0 8 8h38.3l70.45 31.31a8 8 0 0 0 11.25-7.31v-144a8.008 8.008 0 0 0 -3.64-6.71zm-84.36 110.71h-24v-64h24zm72 27.69-56-24.89v-69.6l56-24.89z" fill="url(#b)"/><path d="m306.407 180.143a8 8 0 1 0 10.405 12.157 31.977 31.977 0 0 0 0-48.594 8 8 0 0 0 -10.405 12.154 15.978 15.978 0 0 1 0 24.286z" fill="url(#c)"/><path d="m322.028 137.638a39.975 39.975 0 0 1 0 60.724 8 8 0 0 0 10.4 12.156 55.976 55.976 0 0 0 0-85.036 8 8 0 1 0 -10.4 12.156z" fill="url(#d)"/><path d="m168 343h80a8 8 0 0 0 8-8v-71a8 8 0 0 0 -8-8h-80a8 8 0 0 0 -8 8v71a8 8 0 0 0 8 8zm8-71h64v55h-64z" fill="url(#e)"/><path d="m224 280h-32a8 8 0 0 0 0 16h32a8 8 0 0 0 0-16z" fill="url(#f)"/><path d="m224 304h-32a8 8 0 0 0 0 16h32a8 8 0 0 0 0-16z" fill="url(#g)"/><path d="m344 272h-72a8 8 0 0 0 0 16h72a8 8 0 0 0 0-16z" fill="url(#h)"/><path d="m344 296h-72a8 8 0 0 0 0 16h72a8 8 0 0 0 0-16z" fill="url(#i)"/><path d="m312 320h-40a8 8 0 0 0 0 16h40a8 8 0 0 0 0-16z" fill="url(#j)"/></g></svg>