<?xml version="1.0"?>
<svg xmlns="http://www.w3.org/2000/svg" xmlns:xlink="http://www.w3.org/1999/xlink" width="512" height="512" viewBox="0 0 512 512"><defs><linearGradient id="a" data-name="New Gradient Swatch 1" x1="24.404" y1="486.404" x2="512.47" y2="-1.661" gradientUnits="userSpaceOnUse"><stop offset="0" stop-color="#003f8a"/><stop offset="0.518" stop-color="#00d7df"/><stop offset="1" stop-color="#006df0"/></linearGradient><linearGradient id="b" x1="39" y1="501" x2="527.066" y2="12.934" xlink:href="#a"/><linearGradient id="c" x1="67" y1="529" x2="555.066" y2="40.934" xlink:href="#a"/></defs><g><path d="M496,176H468.95a168.068,168.068,0,0,0-25.7-62L462.4,94.87a8.015,8.015,0,0,0,0-11.32L428.45,49.61a8.015,8.015,0,0,0-11.32,0L398,68.75a168.207,168.207,0,0,0-62-25.7V16a8,8,0,0,0-8-8H280a8,8,0,0,0-8,8V43.05a168.207,168.207,0,0,0-62,25.7L190.87,49.61a8.015,8.015,0,0,0-11.32,0L145.6,83.55a8.015,8.015,0,0,0,0,11.32L164.75,114a168.068,168.068,0,0,0-25.7,62H112a8,8,0,0,0-8,8v16H40A32.036,32.036,0,0,0,8,232V472a32.036,32.036,0,0,0,32,32H184a32.036,32.036,0,0,0,32-32V351.11a165.672,165.672,0,0,0,56,21.84V400a8,8,0,0,0,8,8h48a8,8,0,0,0,8-8V372.95a168.207,168.207,0,0,0,62-25.7l19.13,19.15a8.015,8.015,0,0,0,11.32,0l33.95-33.95a8.015,8.015,0,0,0,0-11.32L443.25,302a168.068,168.068,0,0,0,25.7-62H496a8,8,0,0,0,8-8V184A8,8,0,0,0,496,176ZM141.44,216l-4.5,16H86.25l-4-16ZM200,472a16.021,16.021,0,0,1-16,16H40a16.021,16.021,0,0,1-16-16V232a16.021,16.021,0,0,1,16-16H65.75l6.49,25.94A8,8,0,0,0,80,248h63a8,8,0,0,0,7.7-5.83L158.06,216H184a16.021,16.021,0,0,1,16,16Zm-8-272a7.914,7.914,0,0,0-2.64.46,31.686,31.686,0,0,0-5.09-.45,119.35,119.35,0,0,1,20.34-59.19,136.076,136.076,0,0,0,32.62,25.72A165.963,165.963,0,0,0,232.21,200Zm64.46,57.78A119.611,119.611,0,0,1,296,248.27v70.35A154.192,154.192,0,0,1,256.46,257.78Zm23.88,67.88a119.551,119.551,0,0,1-58.84-30.52,8,8,0,0,0-5.5-2.18v-9.92a7.89,7.89,0,0,0,5.5-2.18,120.91,120.91,0,0,1,20.58-15.68A169.762,169.762,0,0,0,280.34,325.66Zm-28.39-83.34A149.957,149.957,0,0,1,248.22,216H296v16.24A135.536,135.536,0,0,0,251.95,242.32ZM248.22,200a150.553,150.553,0,0,1,3.72-26.29A135.872,135.872,0,0,0,296,183.77V200Zm8.23-41.77A154.25,154.25,0,0,1,296,97.38v70.35A119.673,119.673,0,0,1,256.45,158.23Zm-14.37-7.4a119.869,119.869,0,0,1-27.48-22.79,120.063,120.063,0,0,1,65.73-37.69A169.874,169.874,0,0,0,242.08,150.83ZM211.69,216h20.52a167.075,167.075,0,0,0,5.02,33.49A135.518,135.518,0,0,0,216,264.32V232A31.705,31.705,0,0,0,211.69,216ZM488,224H462.21a8,8,0,0,0-7.91,6.81,151.919,151.919,0,0,1-27.91,67.33,8.014,8.014,0,0,0,.78,10.41l18.26,18.24-22.64,22.64-18.24-18.26a8.013,8.013,0,0,0-10.41-.78,152.015,152.015,0,0,1-67.33,27.91,8,8,0,0,0-6.81,7.91V392H288V366.21a7.994,7.994,0,0,0-6.81-7.91,150.134,150.134,0,0,1-60.78-23.35,8.028,8.028,0,0,0-4.41-1.32V311.69A135.42,135.42,0,0,0,303.99,344h.02a135,135,0,0,0,59.31-13.64,136.7,136.7,0,0,0,46.15-36.61,7.665,7.665,0,0,0,1.23-1.52,135.72,135.72,0,0,0,0-168.46,7.665,7.665,0,0,0-1.23-1.52,135.811,135.811,0,0,0-210.94,0,7.665,7.665,0,0,0-1.23,1.52A135.288,135.288,0,0,0,168.24,200H120v-8h25.79a8,8,0,0,0,7.91-6.81,151.919,151.919,0,0,1,27.91-67.33,8.014,8.014,0,0,0-.78-10.41L162.58,89.21l22.63-22.63,18.24,18.25a8.013,8.013,0,0,0,10.41.78A152.015,152.015,0,0,1,281.19,57.7,8,8,0,0,0,288,49.79V24h32V49.79a8,8,0,0,0,6.81,7.91,152.015,152.015,0,0,1,67.33,27.91,8.013,8.013,0,0,0,10.41-.78l18.24-18.25,22.63,22.63-18.25,18.24a8.014,8.014,0,0,0-.78,10.41,151.919,151.919,0,0,1,27.91,67.33,8,8,0,0,0,7.91,6.81H488ZM370.77,249.46A165.963,165.963,0,0,0,375.79,216h47.94a119.348,119.348,0,0,1-20.34,59.18A136.076,136.076,0,0,0,370.77,249.46Zm22.63,38.5a120.063,120.063,0,0,1-65.73,37.69,169.874,169.874,0,0,0,38.25-60.48A119.869,119.869,0,0,1,393.4,287.96ZM375.79,200a165.963,165.963,0,0,0-5.02-33.46,136.076,136.076,0,0,0,32.62-25.72A119.348,119.348,0,0,1,423.73,200Zm-9.87-49.17a169.874,169.874,0,0,0-38.25-60.48,120.063,120.063,0,0,1,65.73,37.69A119.869,119.869,0,0,1,365.92,150.83Zm-14.37,7.4a119.673,119.673,0,0,1-39.55,9.5V97.38A154.25,154.25,0,0,1,351.55,158.23Zm4.51,15.48A150.553,150.553,0,0,1,359.78,200H312V183.77A135.872,135.872,0,0,0,356.06,173.71ZM359.78,216a150.553,150.553,0,0,1-3.72,26.29A135.872,135.872,0,0,0,312,232.23V216Zm-8.23,41.77A154.25,154.25,0,0,1,312,318.62V248.27A119.673,119.673,0,0,1,351.55,257.77Z" fill="url(#a)"/><path d="M96,464H40a8,8,0,0,0,0,16H96a8,8,0,0,0,0-16Z" fill="url(#b)"/><path d="M128,464h-8a8,8,0,0,0,0,16h8a8,8,0,0,0,0-16Z" fill="url(#c)"/></g></svg>
