<?xml version="1.0" encoding="utf-8"?>
<!-- Generator: Adobe Illustrator 16.0.0, SVG Export Plug-In . SVG Version: 6.00 Build 0)  -->
<!DOCTYPE svg PUBLIC "-//W3C//DTD SVG 1.1//EN" "http://www.w3.org/Graphics/SVG/1.1/DTD/svg11.dtd">
<svg version="1.1" id="Capa_1" xmlns="http://www.w3.org/2000/svg" xmlns:xlink="http://www.w3.org/1999/xlink" x="0px" y="0px"
	 width="512px" height="512px" viewBox="0 0 512 512" enable-background="new 0 0 512 512" xml:space="preserve">
<g>
	<g>
		<path fill="#01AAD9" d="M510.881,500.543L364.602,263.148c-5.055-8.202-13.821-13.098-23.454-13.098s-18.4,4.896-23.454,13.098
			l-10.083,16.362l-61.66-100.068c-3.704-6.011-9.404-10.238-15.973-12.079v-61.456h30.111c4.15,0,7.516-3.365,7.516-7.515
			s-3.365-7.515-7.516-7.515h-30.111V30.64h94.664l-14.333,26.55c-1.203,2.228-1.203,4.912,0,7.14l14.333,26.55h-34.494
			c-4.15,0-7.515,3.365-7.515,7.515s3.364,7.515,7.515,7.515h47.09c2.646,0,5.098-1.392,6.454-3.665
			c1.355-2.272,1.416-5.091,0.159-7.419L325.459,60.76l18.39-34.064c1.257-2.329,1.196-5.147-0.159-7.42
			c-1.356-2.273-3.807-3.665-6.454-3.665H229.976V7.515c0-4.15-3.365-7.515-7.515-7.515c-4.15,0-7.515,3.365-7.515,7.515v159.849
			c-6.57,1.841-12.27,6.068-15.974,12.079l-140.4,227.855c-2.177,3.533-1.078,8.163,2.455,10.34c1.229,0.757,2.59,1.118,3.935,1.118
			c2.522,0,4.985-1.27,6.405-3.573l90.459-146.805l24.697,28.856c1.394,1.629,3.417,2.586,5.56,2.627
			c2.138,0.041,4.202-0.832,5.66-2.404l24.718-26.661l24.718,26.661c1.424,1.535,3.421,2.406,5.511,2.406c0.049,0,0.099,0,0.149,0
			c2.143-0.043,4.166-1,5.56-2.627l24.699-28.858l43.66,70.854c2.177,3.531,6.804,4.632,10.34,2.456
			c3.532-2.177,4.633-6.808,2.456-10.34l-23.115-37.513l14.051-22.805c2.331-3.782,6.216-5.952,10.658-5.952
			s8.328,2.17,10.659,5.952l139.22,225.938l-49.422-0.003l-86.291-140.04c-2.179-3.533-6.808-4.634-10.34-2.457
			c-3.533,2.178-4.634,6.808-2.456,10.34l81.433,132.157H20.974l34.613-56.172c2.177-3.533,1.078-8.163-2.455-10.341
			c-3.533-2.178-8.162-1.077-10.34,2.455l-41.672,67.63c-1.429,2.318-1.491,5.228-0.163,7.605c1.327,2.379,3.838,3.853,6.561,3.853
			h429.89L504.483,512c2.723,0,5.232-1.473,6.561-3.851C512.372,505.771,512.309,502.861,510.881,500.543L510.881,500.543z
			 M252.467,281.054l-24.494-26.42c-1.422-1.534-3.419-2.406-5.511-2.406c-2.091,0-4.089,0.872-5.511,2.406l-24.494,26.42
			l-22.35-26.115l41.662-67.612c2.339-3.795,6.236-5.972,10.692-5.972c4.457,0,8.354,2.177,10.693,5.972l41.662,67.612
			L252.467,281.054z"/>
	</g>
</g>
</svg>
