<?xml version="1.0" encoding="utf-8"?>
<!-- Generator: Adobe Illustrator 16.0.0, SVG Export Plug-In . SVG Version: 6.00 Build 0)  -->
<!DOCTYPE svg PUBLIC "-//W3C//DTD SVG 1.1//EN" "http://www.w3.org/Graphics/SVG/1.1/DTD/svg11.dtd">
<svg version="1.1" id="Layer_1" xmlns="http://www.w3.org/2000/svg" xmlns:xlink="http://www.w3.org/1999/xlink" x="0px" y="0px"
	 width="1080px" height="1080px" viewBox="0 0 1080 1080" enable-background="new 0 0 1080 1080" xml:space="preserve">
<g>
	<path fill="#01AAD9" d="M286.944,330.041c-73.302,0-138.131,37.94-175.703,95.034H22.101C9.945,425.075,0,435.021,0,447.176
		s9.945,22.102,22.101,22.102h67.04c-8.104,22.101-12.524,46.043-12.524,71.091c0,116.03,94.297,210.327,210.328,210.327
		c116.029,0,210.327-94.297,210.327-210.327S402.974,330.041,286.944,330.041z M286.944,706.125
		c-91.351,0-166.126-74.406-166.126-166.125s74.407-166.125,166.126-166.125c91.719,0,166.125,74.407,166.125,166.125
		S378.663,706.125,286.944,706.125z"/>
	<path fill="#01AAD9" d="M1057.899,424.707h-99.454c-10.683-16.208-23.575-30.942-38.678-43.834
		c-37.939-32.783-86.93-50.832-137.394-50.832c-75.144,0-141.446,39.782-178.649,99.454c-16.207-20.628-41.255-33.888-69.25-33.888
		c-14.733,0-29.468,3.684-42.36,10.682c-10.682,5.894-14.733,19.154-8.84,29.837c5.894,10.682,19.154,14.733,29.836,8.84
		c6.631-3.684,13.629-5.157,20.996-5.157c24.312,0,43.834,19.522,43.834,43.834c0,1.474,0,2.947,0.368,4.42
		c-4.42,16.576-6.631,34.257-6.631,52.306c0,116.03,94.298,210.327,210.328,210.327c86.93,0,166.125-54.516,196.698-135.921
		c4.42-11.418-1.474-24.311-12.893-28.362c-11.419-4.42-24.311,1.474-28.362,12.893c-24.312,64.461-86.563,107.558-155.443,107.558
		c-91.351,0-166.126-74.406-166.126-166.126c0-91.719,74.406-166.125,166.126-166.125c82.142,0,151.022,58.936,163.915,139.973
		c1.842,12.155,13.261,20.259,25.416,18.417s20.259-13.261,18.418-25.416c-2.211-12.892-5.525-25.784-9.946-37.939h77.722
		c12.156,0,22.102-9.945,22.102-22.102C1079.632,435.389,1070.423,424.707,1057.899,424.707z"/>
</g>
</svg>
